<mxfile host="Electron" modified="2024-04-05T09:41:25.748Z" agent="Mozilla/5.0 (Windows NT 10.0; Win64; x64) AppleWebKit/537.36 (KHTML, like Gecko) draw.io/24.1.0 Chrome/120.0.6099.109 Electron/28.1.0 Safari/537.36" etag="rhIeK2hI4Y25sxH1ZQQm" version="24.1.0" type="device">
  <diagram name="Página-1" id="ZSEYGTvQNKWusOcL6z6Y">
    <mxGraphModel dx="918" dy="593" grid="1" gridSize="10" guides="1" tooltips="1" connect="1" arrows="1" fold="1" page="1" pageScale="1" pageWidth="827" pageHeight="1169" math="0" shadow="0">
      <root>
        <mxCell id="0" />
        <mxCell id="1" parent="0" />
        <mxCell id="WfX9oOQSdZKHs_nFhwON-3" value="Pre-procesamiento" style="rounded=1;whiteSpace=wrap;html=1;fontSize=13;fillColor=#f8cecc;strokeColor=#b85450;fontStyle=1;strokeWidth=2;" parent="1" vertex="1">
          <mxGeometry x="261" y="155" width="120" height="30" as="geometry" />
        </mxCell>
        <mxCell id="WfX9oOQSdZKHs_nFhwON-27" style="edgeStyle=orthogonalEdgeStyle;rounded=0;orthogonalLoop=1;jettySize=auto;html=1;entryX=0.5;entryY=1;entryDx=0;entryDy=0;exitX=0.5;exitY=1;exitDx=0;exitDy=0;strokeWidth=2;fillColor=#f8cecc;strokeColor=#b85450;" parent="1" source="WfX9oOQSdZKHs_nFhwON-3" target="lNUb4LhIdZn6GnHgnjt8-3" edge="1">
          <mxGeometry relative="1" as="geometry">
            <mxPoint x="403" y="190" as="sourcePoint" />
            <mxPoint x="322" y="199" as="targetPoint" />
          </mxGeometry>
        </mxCell>
        <mxCell id="WfX9oOQSdZKHs_nFhwON-38" style="edgeStyle=orthogonalEdgeStyle;rounded=0;orthogonalLoop=1;jettySize=auto;html=1;exitX=0.5;exitY=1;exitDx=0;exitDy=0;entryX=0.5;entryY=0;entryDx=0;entryDy=0;strokeWidth=2;fillColor=#ffe6cc;strokeColor=#d79b00;" parent="1" source="WfX9oOQSdZKHs_nFhwON-31" target="WfX9oOQSdZKHs_nFhwON-33" edge="1">
          <mxGeometry relative="1" as="geometry" />
        </mxCell>
        <mxCell id="eweO7cKtCB9WlDw2GwqF-9" style="edgeStyle=orthogonalEdgeStyle;rounded=0;orthogonalLoop=1;jettySize=auto;html=1;exitX=0;exitY=0.5;exitDx=0;exitDy=0;entryX=1;entryY=0.5;entryDx=0;entryDy=0;strokeWidth=2;fillColor=#fff2cc;strokeColor=#d6b656;" edge="1" parent="1" source="WfX9oOQSdZKHs_nFhwON-31" target="eweO7cKtCB9WlDw2GwqF-7">
          <mxGeometry relative="1" as="geometry" />
        </mxCell>
        <mxCell id="WfX9oOQSdZKHs_nFhwON-31" value="MODELO DE APRENDIZAJE&lt;br&gt;TRADICIONAL" style="rounded=0;whiteSpace=wrap;html=1;fillColor=#fff2cc;strokeColor=#d6b656;fontStyle=1;strokeWidth=2;" parent="1" vertex="1">
          <mxGeometry x="261" y="334" width="120" height="60" as="geometry" />
        </mxCell>
        <mxCell id="WfX9oOQSdZKHs_nFhwON-32" style="edgeStyle=orthogonalEdgeStyle;rounded=0;orthogonalLoop=1;jettySize=auto;html=1;exitX=0.5;exitY=0;exitDx=0;exitDy=0;entryX=0.5;entryY=0;entryDx=0;entryDy=0;strokeWidth=2;fillColor=#dae8fc;strokeColor=#6c8ebf;" parent="1" source="lNUb4LhIdZn6GnHgnjt8-3" target="WfX9oOQSdZKHs_nFhwON-31" edge="1">
          <mxGeometry relative="1" as="geometry">
            <mxPoint x="323" y="402" as="sourcePoint" />
            <mxPoint x="323" y="424" as="targetPoint" />
          </mxGeometry>
        </mxCell>
        <mxCell id="WfX9oOQSdZKHs_nFhwON-33" value="" style="rounded=1;whiteSpace=wrap;html=1;strokeWidth=2;" parent="1" vertex="1">
          <mxGeometry x="261" y="422" width="120" height="50" as="geometry" />
        </mxCell>
        <mxCell id="WfX9oOQSdZKHs_nFhwON-34" value="" style="ellipse;whiteSpace=wrap;html=1;aspect=fixed;strokeWidth=2;" parent="1" vertex="1">
          <mxGeometry x="271" y="432" width="30" height="30" as="geometry" />
        </mxCell>
        <mxCell id="WfX9oOQSdZKHs_nFhwON-35" value="" style="ellipse;whiteSpace=wrap;html=1;aspect=fixed;fontStyle=1;fillStyle=hatch;strokeWidth=2;" parent="1" vertex="1">
          <mxGeometry x="305" y="432" width="30" height="30" as="geometry" />
        </mxCell>
        <mxCell id="WfX9oOQSdZKHs_nFhwON-36" value="" style="ellipse;whiteSpace=wrap;html=1;aspect=fixed;strokeWidth=2;" parent="1" vertex="1">
          <mxGeometry x="341" y="432" width="30" height="30" as="geometry" />
        </mxCell>
        <mxCell id="WfX9oOQSdZKHs_nFhwON-39" value="N = 3" style="text;html=1;align=center;verticalAlign=middle;whiteSpace=wrap;rounded=0;fontSize=17;fontStyle=1" parent="1" vertex="1">
          <mxGeometry x="202" y="432" width="60" height="30" as="geometry" />
        </mxCell>
        <mxCell id="WfX9oOQSdZKHs_nFhwON-40" value="&lt;span&gt;Clasificación entre: &lt;br&gt;CN , MCI y AD.&lt;/span&gt;" style="text;html=1;align=center;verticalAlign=middle;whiteSpace=wrap;rounded=0;fontStyle=1" parent="1" vertex="1">
          <mxGeometry x="369" y="427" width="141" height="40" as="geometry" />
        </mxCell>
        <mxCell id="lNUb4LhIdZn6GnHgnjt8-3" value="&lt;div&gt;&lt;br/&gt;&lt;/div&gt;" style="shape=loopLimit;whiteSpace=wrap;size=40;rotation=-180;verticalAlign=middle;horizontal=0;textDirection=rtl;html=1;fillColor=#dae8fc;strokeColor=#6c8ebf;strokeWidth=2;" parent="1" vertex="1">
          <mxGeometry x="271" y="219" width="100" height="80" as="geometry" />
        </mxCell>
        <mxCell id="lNUb4LhIdZn6GnHgnjt8-4" value="CODIFICADOR" style="text;html=1;align=center;verticalAlign=middle;whiteSpace=wrap;rounded=0;fontStyle=1;labelBackgroundColor=none;" parent="1" vertex="1">
          <mxGeometry x="290" y="234" width="60" height="30" as="geometry" />
        </mxCell>
        <mxCell id="lNUb4LhIdZn6GnHgnjt8-7" value="" style="endArrow=none;html=1;rounded=0;exitX=0.002;exitY=0.702;exitDx=0;exitDy=0;exitPerimeter=0;strokeWidth=2;" parent="1" source="lNUb4LhIdZn6GnHgnjt8-3" edge="1">
          <mxGeometry width="50" height="50" relative="1" as="geometry">
            <mxPoint x="263" y="290" as="sourcePoint" />
            <mxPoint x="440" y="110" as="targetPoint" />
          </mxGeometry>
        </mxCell>
        <mxCell id="lNUb4LhIdZn6GnHgnjt8-8" value="" style="endArrow=none;html=1;rounded=0;exitX=-0.005;exitY=0.697;exitDx=0;exitDy=0;exitPerimeter=0;strokeWidth=2;" parent="1" source="lNUb4LhIdZn6GnHgnjt8-3" edge="1">
          <mxGeometry width="50" height="50" relative="1" as="geometry">
            <mxPoint x="380" y="260" as="sourcePoint" />
            <mxPoint x="440" y="370" as="targetPoint" />
          </mxGeometry>
        </mxCell>
        <mxCell id="lNUb4LhIdZn6GnHgnjt8-9" value="" style="rounded=1;whiteSpace=wrap;html=1;fillColor=#dae8fc;strokeColor=#6c8ebf;strokeWidth=2;" parent="1" vertex="1">
          <mxGeometry x="441" y="160" width="220" height="30" as="geometry" />
        </mxCell>
        <mxCell id="lNUb4LhIdZn6GnHgnjt8-15" value="" style="ellipse;whiteSpace=wrap;html=1;aspect=fixed;fillColor=#dae8fc;strokeColor=#6c8ebf;strokeWidth=2;" parent="1" vertex="1">
          <mxGeometry x="631" y="165" width="20" height="20" as="geometry" />
        </mxCell>
        <mxCell id="lNUb4LhIdZn6GnHgnjt8-16" value="" style="ellipse;whiteSpace=wrap;html=1;aspect=fixed;fillColor=#dae8fc;strokeColor=#6c8ebf;strokeWidth=2;" parent="1" vertex="1">
          <mxGeometry x="601" y="165" width="20" height="20" as="geometry" />
        </mxCell>
        <mxCell id="lNUb4LhIdZn6GnHgnjt8-17" value="" style="ellipse;whiteSpace=wrap;html=1;aspect=fixed;fillColor=#dae8fc;strokeColor=#6c8ebf;strokeWidth=2;" parent="1" vertex="1">
          <mxGeometry x="571" y="165" width="20" height="20" as="geometry" />
        </mxCell>
        <mxCell id="lNUb4LhIdZn6GnHgnjt8-18" value="" style="ellipse;whiteSpace=wrap;html=1;aspect=fixed;fillColor=#dae8fc;strokeColor=#6c8ebf;strokeWidth=2;" parent="1" vertex="1">
          <mxGeometry x="541" y="165" width="20" height="20" as="geometry" />
        </mxCell>
        <mxCell id="lNUb4LhIdZn6GnHgnjt8-19" value="" style="ellipse;whiteSpace=wrap;html=1;aspect=fixed;fillColor=#dae8fc;strokeColor=#6c8ebf;strokeWidth=2;" parent="1" vertex="1">
          <mxGeometry x="510" y="165" width="20" height="20" as="geometry" />
        </mxCell>
        <mxCell id="lNUb4LhIdZn6GnHgnjt8-20" value="" style="ellipse;whiteSpace=wrap;html=1;aspect=fixed;fillColor=#dae8fc;strokeColor=#6c8ebf;strokeWidth=2;" parent="1" vertex="1">
          <mxGeometry x="481" y="165" width="20" height="20" as="geometry" />
        </mxCell>
        <mxCell id="lNUb4LhIdZn6GnHgnjt8-21" value="" style="ellipse;whiteSpace=wrap;html=1;aspect=fixed;fillColor=#dae8fc;strokeColor=#6c8ebf;strokeWidth=2;" parent="1" vertex="1">
          <mxGeometry x="451" y="165" width="20" height="20" as="geometry" />
        </mxCell>
        <mxCell id="lNUb4LhIdZn6GnHgnjt8-22" value="" style="rounded=1;whiteSpace=wrap;html=1;fillColor=#dae8fc;strokeColor=#6c8ebf;strokeWidth=2;" parent="1" vertex="1">
          <mxGeometry x="470" y="225" width="160" height="30" as="geometry" />
        </mxCell>
        <mxCell id="lNUb4LhIdZn6GnHgnjt8-24" value="" style="ellipse;whiteSpace=wrap;html=1;aspect=fixed;fillColor=#dae8fc;strokeColor=#6c8ebf;strokeWidth=2;" parent="1" vertex="1">
          <mxGeometry x="601" y="230" width="20" height="20" as="geometry" />
        </mxCell>
        <mxCell id="lNUb4LhIdZn6GnHgnjt8-25" value="" style="ellipse;whiteSpace=wrap;html=1;aspect=fixed;fillColor=#dae8fc;strokeColor=#6c8ebf;strokeWidth=2;" parent="1" vertex="1">
          <mxGeometry x="571" y="230" width="20" height="20" as="geometry" />
        </mxCell>
        <mxCell id="lNUb4LhIdZn6GnHgnjt8-26" value="" style="ellipse;whiteSpace=wrap;html=1;aspect=fixed;fillColor=#dae8fc;strokeColor=#6c8ebf;strokeWidth=2;" parent="1" vertex="1">
          <mxGeometry x="541" y="230" width="20" height="20" as="geometry" />
        </mxCell>
        <mxCell id="lNUb4LhIdZn6GnHgnjt8-27" value="" style="ellipse;whiteSpace=wrap;html=1;aspect=fixed;fillColor=#dae8fc;strokeColor=#6c8ebf;strokeWidth=2;" parent="1" vertex="1">
          <mxGeometry x="510" y="230" width="20" height="20" as="geometry" />
        </mxCell>
        <mxCell id="lNUb4LhIdZn6GnHgnjt8-28" value="" style="ellipse;whiteSpace=wrap;html=1;aspect=fixed;fillColor=#dae8fc;strokeColor=#6c8ebf;strokeWidth=2;" parent="1" vertex="1">
          <mxGeometry x="481" y="230" width="20" height="20" as="geometry" />
        </mxCell>
        <mxCell id="lNUb4LhIdZn6GnHgnjt8-30" value="" style="rounded=1;whiteSpace=wrap;html=1;fillColor=#dae8fc;strokeColor=#6c8ebf;strokeWidth=2;" parent="1" vertex="1">
          <mxGeometry x="500" y="290" width="100" height="30" as="geometry" />
        </mxCell>
        <mxCell id="lNUb4LhIdZn6GnHgnjt8-33" value="" style="ellipse;whiteSpace=wrap;html=1;aspect=fixed;fillColor=#dae8fc;strokeColor=#6c8ebf;strokeWidth=2;" parent="1" vertex="1">
          <mxGeometry x="571" y="295" width="20" height="20" as="geometry" />
        </mxCell>
        <mxCell id="lNUb4LhIdZn6GnHgnjt8-34" value="" style="ellipse;whiteSpace=wrap;html=1;aspect=fixed;fillColor=#dae8fc;strokeColor=#6c8ebf;strokeWidth=2;" parent="1" vertex="1">
          <mxGeometry x="541" y="295" width="20" height="20" as="geometry" />
        </mxCell>
        <mxCell id="lNUb4LhIdZn6GnHgnjt8-35" value="" style="ellipse;whiteSpace=wrap;html=1;aspect=fixed;fillColor=#dae8fc;strokeColor=#6c8ebf;strokeWidth=2;" parent="1" vertex="1">
          <mxGeometry x="510" y="295" width="20" height="20" as="geometry" />
        </mxCell>
        <mxCell id="lNUb4LhIdZn6GnHgnjt8-39" value="" style="endArrow=classic;html=1;rounded=0;strokeWidth=2;fillColor=#f8cecc;strokeColor=#b85450;" parent="1" edge="1">
          <mxGeometry width="50" height="50" relative="1" as="geometry">
            <mxPoint x="551" y="110" as="sourcePoint" />
            <mxPoint x="551" y="160" as="targetPoint" />
          </mxGeometry>
        </mxCell>
        <mxCell id="lNUb4LhIdZn6GnHgnjt8-40" value="" style="endArrow=classic;html=1;rounded=0;strokeWidth=2;exitX=0.5;exitY=1;exitDx=0;exitDy=0;fillColor=#dae8fc;strokeColor=#6c8ebf;" parent="1" source="lNUb4LhIdZn6GnHgnjt8-9" edge="1">
          <mxGeometry width="50" height="50" relative="1" as="geometry">
            <mxPoint x="551" y="195" as="sourcePoint" />
            <mxPoint x="551" y="225" as="targetPoint" />
          </mxGeometry>
        </mxCell>
        <mxCell id="lNUb4LhIdZn6GnHgnjt8-41" value="" style="endArrow=classic;html=1;rounded=0;strokeWidth=2;exitX=0.5;exitY=1;exitDx=0;exitDy=0;fillColor=#dae8fc;strokeColor=#6c8ebf;" parent="1" edge="1">
          <mxGeometry width="50" height="50" relative="1" as="geometry">
            <mxPoint x="550.58" y="255" as="sourcePoint" />
            <mxPoint x="550.58" y="290" as="targetPoint" />
          </mxGeometry>
        </mxCell>
        <mxCell id="lNUb4LhIdZn6GnHgnjt8-42" value="" style="endArrow=classic;html=1;rounded=0;strokeWidth=2;exitX=0.5;exitY=1;exitDx=0;exitDy=0;fillColor=#dae8fc;strokeColor=#6c8ebf;" parent="1" source="lNUb4LhIdZn6GnHgnjt8-30" edge="1">
          <mxGeometry width="50" height="50" relative="1" as="geometry">
            <mxPoint x="571" y="210" as="sourcePoint" />
            <mxPoint x="550" y="370" as="targetPoint" />
          </mxGeometry>
        </mxCell>
        <mxCell id="AJNu-v-aVdBVodsm3YSN-1" value="" style="endArrow=none;html=1;rounded=0;strokeWidth=2;" parent="1" edge="1">
          <mxGeometry width="50" height="50" relative="1" as="geometry">
            <mxPoint x="440" y="110" as="sourcePoint" />
            <mxPoint x="680" y="110" as="targetPoint" />
          </mxGeometry>
        </mxCell>
        <mxCell id="AJNu-v-aVdBVodsm3YSN-2" value="" style="endArrow=none;html=1;rounded=0;strokeWidth=2;" parent="1" edge="1">
          <mxGeometry width="50" height="50" relative="1" as="geometry">
            <mxPoint x="440" y="370" as="sourcePoint" />
            <mxPoint x="680" y="370" as="targetPoint" />
          </mxGeometry>
        </mxCell>
        <mxCell id="AJNu-v-aVdBVodsm3YSN-3" value="" style="endArrow=none;html=1;rounded=0;strokeWidth=2;" parent="1" edge="1">
          <mxGeometry width="50" height="50" relative="1" as="geometry">
            <mxPoint x="680" y="110" as="sourcePoint" />
            <mxPoint x="680" y="370" as="targetPoint" />
          </mxGeometry>
        </mxCell>
        <mxCell id="eweO7cKtCB9WlDw2GwqF-7" value="&lt;ul style=&quot;padding-left: 20px;&quot;&gt;&lt;li&gt;KNN&amp;nbsp;&lt;/li&gt;&lt;li&gt;SVM&lt;/li&gt;&lt;li&gt;Árboles de Decision&lt;/li&gt;&lt;li&gt;Random Forest&lt;/li&gt;&lt;li&gt;Gradient Boosting&lt;/li&gt;&lt;/ul&gt;" style="text;strokeColor=default;fillColor=none;html=1;whiteSpace=wrap;verticalAlign=middle;overflow=hidden;rounded=1;glass=0;strokeWidth=2;" vertex="1" parent="1">
          <mxGeometry x="90" y="317" width="138" height="94" as="geometry" />
        </mxCell>
        <mxCell id="eweO7cKtCB9WlDw2GwqF-13" style="edgeStyle=orthogonalEdgeStyle;rounded=0;orthogonalLoop=1;jettySize=auto;html=1;exitX=0.5;exitY=1;exitDx=0;exitDy=0;exitPerimeter=0;entryX=0.5;entryY=0;entryDx=0;entryDy=0;strokeWidth=2;" edge="1" parent="1" source="eweO7cKtCB9WlDw2GwqF-11" target="WfX9oOQSdZKHs_nFhwON-3">
          <mxGeometry relative="1" as="geometry" />
        </mxCell>
        <mxCell id="eweO7cKtCB9WlDw2GwqF-11" value="&lt;b&gt;TADPOLE CHALLENGE&lt;/b&gt;" style="shape=cylinder3;whiteSpace=wrap;html=1;boundedLbl=1;backgroundOutline=1;size=15;" vertex="1" parent="1">
          <mxGeometry x="275.5" y="40" width="89" height="80" as="geometry" />
        </mxCell>
      </root>
    </mxGraphModel>
  </diagram>
</mxfile>
